<?xml version="1.0" encoding="UTF-8"?>
<svg viewBox="0 0 640 480" xmlns="http://www.w3.org/2000/svg">
 <g fill-rule="evenodd">
  <path d="m230.39 9h-209.39c-9.941 0-18 8.059-18 18v418.79c0 9.94 8.059 18 18 18h418.79c9.941 0 18-8.06 18-18v-418.79c0-9.941-8.059-18-18-18h-209.39z" fill="#0367a6"/>
  <g fill="#fff">
   <path d="m230.28 120.72c63.293 0 109.77 49.825 109.77 111.22 0 61.391-46.479 111.22-109.77 111.22-63.294 0-114.66-49.825-114.66-111.22 0-61.391 51.368-111.22 114.66-111.22"/>
   <path d="m99.318 184.13c0 8.4418-6.7272 17.47-15.434 17.47v142.3c0 20.204-24.041 20.204-24.041 0v-142.3c-8.4697 0-15.845-7.4647-15.845-18.681v-78.282c0-6.8394 8.6054-7.113 8.6054 0.23449v57.881h7.2053v-58.389c0-6.2923 8.2638-6.6831 8.2638 0.27358v58.115h7.4784v-58.311c0-6.5658 8.0258-6.8394 8.0258 0.23449v58.076h7.3409v-58.311c0-6.4877 8.4004-6.7612 8.4004 0.23449v79.454z"/>
   <path d="m224.19 118.28c60.839 0 110.22 50.497 110.22 112.72 0 62.219-49.378 112.72-110.22 112.72-60.84 0-110.22-50.497-110.22-112.72 0-62.22 49.376-112.72 110.22-112.72"/>
  </g>
  <path d="m227.07 124.94c58.264 0 105.55 47.288 105.55 105.55 0 58.264-47.289 105.55-105.55 105.55-58.265 0-105.55-47.287-105.55-105.55 0-58.265 47.288-105.55 105.55-105.55" fill="#0367a6"/>
  <path d="m227.19 135.06c52.682 0 95.438 42.755 95.438 95.436s-42.756 95.436-95.438 95.436c-52.68 0-95.436-42.755-95.436-95.436s42.756-95.436 95.436-95.436" fill="#fff"/>
 </g>
 <switch/>
 <g fill-rule="evenodd">
  <path d="m227.69 143.83c47.565 0 86.168 38.827 86.168 86.668 0 47.84-38.603 86.668-86.168 86.668-47.564 0-86.167-38.828-86.167-86.668 0-47.841 38.604-86.668 86.167-86.668" fill="#3a7faa" opacity=".65"/>
  <path d="m401.11 112.76v231.8c0 20.742-29.335 20.414-29.335 0v-91.943h-15.581v-139.86c0-32.547 44.916-32.547 44.916 0z" fill="#fff"/>
  <g fill="#0367a6">
   <path d="m387.14 241.8h-1.7316c-3.8104 0-6.9015 1.8075-6.9015 4.0383v96.267c0 2.2309 3.09 4.0383 6.9015 4.0383h3.462c3.8127 0 6.9015-1.8074 6.9015-4.0383v-96.267c0-2.2308-3.0876-4.0383-6.9015-4.0383h-1.7304z" opacity=".85"/>
   <path d="m72.353 204.54h-1.6292c-3.5908 0-6.5018 2.4546-6.5018 5.4825v130.64c0 3.0279 2.9099 5.4825 6.5018 5.4825h3.2615c3.5897 0 6.5017-2.4538 6.5017-5.4825v-130.64c0-3.0279-2.911-5.4825-6.5017-5.4825h-1.6324z" opacity=".85"/>
  </g>
 </g>
</svg>
